<?xml version="1.0" encoding="UTF-8"?>
<svg width="25px" height="20px" viewBox="0 0 25 20" version="1.1" xmlns="http://www.w3.org/2000/svg" xmlns:xlink="http://www.w3.org/1999/xlink">
    <title>icon_RVN</title>
    <g id="RavenMiner-Pool" stroke="none" stroke-width="1" fill="none" fill-rule="evenodd">
        <g id="icon_RVN" transform="translate(-13.000000, -15.000000)">
            <rect id="Icon-Bounds" x="0" y="0" width="50" height="50"></rect>
            <g id="Group" transform="translate(9.000000, 9.000000)" fill="#FFFFFF" fill-rule="nonzero" stroke="#FFFFFF">
                <g id="RVN-generated" transform="translate(4.000000, 7.000000)">
                    <path d="M11.4881583,17.9639723 C11.4370998,17.932733 10.9903381,17.745297 10.4989002,17.5516132 C8.93523421,16.9330747 5.59090369,15.583536 5.39943438,15.489818 C5.29731742,15.4398351 5.17605353,15.4023479 5.13137736,15.4023479 C5.08670119,15.4023479 5.03564271,15.3773565 5.01011347,15.3398693 C4.99096654,15.30863 4.76120337,14.3027238 4.49314634,13.1093817 C4.23147163,11.9160397 3.9634146,10.6977061 3.89320919,10.4040565 C3.82938609,10.1104069 3.61238754,9.10450075 3.40815362,8.16732111 L3.03797963,6.4554063 L1.51898982,5.57445744 C0.682907186,5.08712403 -1.77635684e-15,4.67476498 -1.77635684e-15,4.65602139 C-1.77635684e-15,4.6372778 0.523349432,4.49982479 1.16796276,4.35612391 C1.80619377,4.21242303 3.81023916,3.7625768 5.61643293,3.35021776 C7.4226267,2.93785872 11.1435135,2.10064491 13.8815246,1.47585848 C16.6195356,0.85731992 19.2171359,0.270020679 19.6575153,0.163806987 C20.0978947,0.0638411584 20.4680686,-0.0111332127 20.4808333,0.0013625158 C20.4935979,0.0201061086 19.734103,1.85073034 18.7959034,4.07497002 C17.8513215,6.29920969 17.0726796,8.17981684 17.059915,8.24854334 C17.0343858,8.35475704 17.1173558,8.40473995 17.5960291,8.57343229 C19.2873413,9.16073153 23.9591923,10.8476549 23.9847215,10.8726463 C24.0038685,10.8913899 24.0038685,10.9163814 23.9911038,10.9226292 C23.9783392,10.935125 22.4465848,11.4474498 20.5957148,12.0597405 C18.7384626,12.6720312 17.2067082,13.2030997 17.1939435,13.2405869 C17.1811789,13.2780741 17.0854443,14.0465614 16.9833273,14.9525017 C16.8812103,15.858442 16.7790934,16.6206815 16.7471818,16.6519208 C16.7152703,16.6769122 15.5728368,16.9893054 14.2134047,17.3391858 C12.8539726,17.6828184 11.7051568,17.9827159 11.6604806,17.9952116 C11.6158045,18.0077073 11.5392167,17.9952116 11.4881583,17.9639723 Z M11.5519814,17.7640406 C11.5519814,17.5516132 11.0860727,14.3652025 11.0477789,14.3277153 C11.0286319,14.3027238 9.7457876,14.5026555 8.20765085,14.7775615 C6.6695141,15.0524675 5.38666976,15.2773906 5.35475821,15.2773906 C5.32284666,15.2773906 5.29731742,15.3023821 5.29731742,15.3336214 C5.29731742,15.3648607 5.4058167,15.4085958 5.53984521,15.4335872 C5.80790223,15.4835702 10.9711911,17.5391175 11.2647774,17.7140577 C11.4945406,17.8515107 11.5519814,17.8640064 11.5519814,17.7640406 Z M6.2291347,14.5401427 C6.790778,14.202758 8.03532848,13.46551 8.99905731,12.9032022 C9.96278614,12.3408944 11.7306861,11.3162447 12.924178,10.6227318 C14.11767,9.92921883 15.4388082,9.16697939 15.8536584,8.92956055 C16.2748909,8.69214171 16.6259179,8.46721859 16.6386826,8.42973141 C16.6514472,8.38599636 16.5110364,8.34226131 16.2621263,8.31726985 C16.0387454,8.29227839 15.3749851,8.20480829 14.775048,8.12358606 C13.4666744,7.94239799 9.80322839,7.44256885 6.95671806,7.05520127 C5.81428454,6.90525253 4.51229327,6.72406446 4.05276694,6.65533796 C3.59962292,6.59285931 3.210302,6.54912426 3.19753738,6.56161999 C3.18477276,6.58036359 3.20391969,6.62409863 3.23583124,6.66783368 C3.27412511,6.71156873 3.71450451,8.64215879 4.21870701,10.9476207 C4.72290951,13.2593305 5.1569066,15.1524334 5.17605353,15.1524334 C5.19520046,15.1524334 5.67387372,14.8775273 6.2291347,14.5401427 Z" id="Shape" transform="translate(12.000000, 9.000000) scale(-1, 1) rotate(-180.000000) translate(-12.000000, -9.000000) "></path>
                </g>
            </g>
        </g>
    </g>
</svg>