<?xml version="1.0" encoding="UTF-8"?>
<svg width="128px" height="128px" viewBox="0 0 128 128" version="1.1" xmlns="http://www.w3.org/2000/svg" xmlns:xlink="http://www.w3.org/1999/xlink">
    <title>icon_RVNCOIN-LIGHT</title>
    <g id="icon_RVNCOIN-LIGHT" stroke="none" stroke-width="1" fill="none" fill-rule="evenodd">
        <path d="M64,0 C99.346224,0 128,28.653776 128,64 C128,99.346224 99.346224,128 64,128 C28.653776,128 0,99.346224 0,64 C0,28.653776 28.653776,0 64,0 Z M50.7305825,37.1764706 L34,113.647059 L60.3543689,94.8529412 L50.7305825,37.1764706 Z M51.3524272,37.4705882 L60.8873786,94.6764706 L76.9368932,94.8823529 L51.3524272,37.4705882 Z M51.707767,36.9411765 L77.6475728,94.5882353 L85.5242718,41.6470588 L51.707767,36.9411765 Z M86.0868932,42.5294118 L78.4470874,93.4117647 L90.7359223,48.1764706 L86.0868932,42.5294118 Z M82.0004854,27.2647059 L52.8330097,36.3823529 L85.1985437,40.7941176 L82.0004854,27.2647059 Z M72.5247573,22.5 L52.3,36.0294118 L81.8524272,26.5294118 L72.5247573,22.5 Z M71.5475728,22.5 L55.5572816,28.7058824 L51.707767,35.7647059 L71.5475728,22.5 Z M69.9781553,22.5 L57.4228155,22.9117647 L55.5868932,28.1176471 L69.9781553,22.5 Z M80.2237864,18.5294118 L82.3262136,26.0588235 L94.7631068,22.7941176 L80.2237864,18.5294118 Z M79.7796117,19.3823529 L78.1509709,24.2058824 L81.4082524,25.7647059 L79.7796117,19.3823529 Z M69.9781553,14.9705882 L77.5291262,23.7941176 L79.3058252,19 L69.9781553,14.9705882 Z M68.6160194,14.3823529 L62.2791262,17.2941176 L76.7296117,23.6176471 L68.6160194,14.3823529 Z M61.6276699,17.7941176 L57.6300971,22.1764706 L70.8961165,21.8529412 L61.6276699,17.7941176 Z M75.8412621,14 L69.0305825,14 L79.5723301,18.0588235 L75.8412621,14 Z" id="Combined-Shape" fill="#2B2B2B"></path>
    </g>
</svg>