<?xml version="1.0" encoding="UTF-8"?>
<svg width="10px" height="6px" viewBox="0 0 10 6" version="1.1" xmlns="http://www.w3.org/2000/svg" xmlns:xlink="http://www.w3.org/1999/xlink">
    <title>Group 2</title>
    <g id="RavenMiner-Pool" stroke="none" stroke-width="1" fill="none" fill-rule="evenodd">
        <g id="Address-DARK" transform="translate(-1184.000000, -177.000000)" fill="#FFFFFF" fill-rule="nonzero">
            <g id="Group-2" transform="translate(1184.000000, 177.000000)">
                <path d="M10,0.352941176 L10,5.15169258 L8.85109845,5.15169258 L8.85099774,2.39994118 L5.40439381,6 L4.59199774,5.15169258 L8.03899774,1.55194118 L5.40439381,1.55262903 L5.40439381,0.352941176 L10,0.352941176 Z" id="Combined-Shape"></path>
                <path d="M1.05595906,5.64705882 L1.05595906,3.60034242 L1.9196077,3.60034242 L2.86018051,5.64705882 L4.0560017,5.64705882 L2.99304953,3.41641189 C3.57347736,3.15812645 3.90914646,2.53197994 3.90914646,1.81191146 C3.90914646,0.688761159 3.22731859,0 2.11891123,0 L0,0 L0,5.64705882 L1.05595906,5.64705882 Z M1.98254566,2.69242999 L1.05595906,2.69242999 L1.05595906,0.954873425 L1.972056,0.954873425 C2.49653898,0.954873425 2.82521498,1.29142717 2.82521498,1.82756512 C2.82521498,2.3715299 2.51402174,2.69242999 1.98254566,2.69242999 Z" id="R"></path>
            </g>
        </g>
    </g>
</svg>