<?xml version="1.0" encoding="UTF-8"?>
<svg width="24px" height="20px" viewBox="0 0 24 20" version="1.1" xmlns="http://www.w3.org/2000/svg" xmlns:xlink="http://www.w3.org/1999/xlink">
    <title>icon</title>
    <defs>
        <path d="M25.3388348,7.16116524 C25.7293591,7.55168953 25.7293591,8.18485451 25.3388348,8.5753788 L9.0753788,24.8388348 C8.68485451,25.2293591 8.05168953,25.2293591 7.66116524,24.8388348 C7.27064094,24.4483105 7.27064094,23.8151455 7.66116524,23.4246212 L23.9246212,7.16116524 C24.3151455,6.77064094 24.9483105,6.77064094 25.3388348,7.16116524 Z M24.6919357,10.6363119 C26.6538591,11.6228944 28,13.6542432 28,16 C28,19.3137085 25.3137085,22 22,22 C19.6542432,22 17.6228944,20.6538591 16.6363119,18.6919357 L18.1705754,17.1592935 C18.6675502,18.8031209 20.1940021,20 22,20 C24.209139,20 26,18.209139 26,16 C26,14.1940021 24.8031209,12.6675502 23.1592935,12.1705754 L24.6919357,10.6363119 Z M10,10 C12.6163235,10 14.8415265,11.6745858 15.6622548,14.0104033 L8.00939475,21.6619003 C5.67410384,20.8408859 4,18.6159469 4,16 C4,12.6862915 6.6862915,10 10,10 Z" id="path-1"></path>
    </defs>
    <g id="RavenMiner-Pool" stroke="none" stroke-width="1" fill="none" fill-rule="evenodd">
        <g id="Address-DARK" transform="translate(-1403.000000, -15.000000)">
            <g id=".icon" transform="translate(1390.000000, 0.000000)">
                <rect id="Icon-Bounds" x="0" y="0" width="50" height="50"></rect>
                <g id="Group" transform="translate(9.000000, 9.000000)">
                    <mask id="mask-2" fill="white">
                        <use xlink:href="#path-1"></use>
                    </mask>
                    <use id="light-dark-toggle" fill="#D8D8D8" xlink:href="#path-1"></use>
                    <g mask="url(#mask-2)" fill="#FFFFFF" id="white">
                        <g>
                            <rect x="0" y="0" width="32" height="32"></rect>
                        </g>
                    </g>
                </g>
            </g>
        </g>
    </g>
</svg>